<?xml version="1.0" encoding="UTF-8" standalone="no"?>
<!DOCTYPE svg PUBLIC "-//W3C//DTD SVG 1.1//EN" "http://www.w3.org/Graphics/SVG/1.1/DTD/svg11.dtd">
<svg width="100%" height="100%" viewBox="0 0 1542 340" version="1.1" xmlns="http://www.w3.org/2000/svg" xmlns:xlink="http://www.w3.org/1999/xlink" xml:space="preserve" style="fill-rule:evenodd;clip-rule:evenodd;stroke-linejoin:round;stroke-miterlimit:1.41421;">
    <g transform="matrix(0.948376,0,0,0.948376,-25.9045,-81.0475)">
        <g>
            <g transform="matrix(0.91762,0,0,0.91762,-139.557,154.03)">
                <path d="M259.603,286.363C299.706,286.363 327.688,263.252 331.54,226.774L298.233,226.774C294.608,246.146 279.994,258.041 259.716,258.041C233.547,258.041 217.12,236.517 217.12,201.624C217.12,167.185 233.773,145.547 259.603,145.547C279.541,145.547 294.948,158.688 298.12,178.74L331.426,178.74C328.821,142.149 298.913,117.225 259.603,117.225C212.249,117.225 182.228,149.059 182.228,201.738C182.228,254.529 212.022,286.363 259.603,286.363Z" style="fill:rgb(23,38,94);fill-rule:nonzero;"/>
                <path d="M397.359,260.873C385.351,260.873 377.534,255.096 377.534,245.919C377.534,236.743 384.898,231.305 398.719,230.399L424.888,228.587L424.888,237.763C424.888,251.357 412.653,260.873 397.359,260.873ZM386.597,285.003C402.571,285.003 417.978,277.3 424.775,264.272L425.455,264.272L425.455,283.531L457.402,283.531L457.402,197.999C457.402,173.076 436.444,156.649 404.383,156.649C373.229,156.649 351.705,173.076 350.799,196.866L381.046,196.866C382.632,187.803 391.015,181.459 403.024,181.459C416.618,181.459 424.888,188.03 424.888,200.038L424.888,208.308L393.734,210.234C361.901,212.16 344.568,224.961 344.568,247.619C344.568,269.936 362.58,285.003 386.597,285.003Z" style="fill:rgb(23,38,94);fill-rule:nonzero;"/>
                <path d="M479.606,283.531L512.686,283.531L512.686,212.387C512.686,195.847 522.202,184.518 538.062,184.518C553.696,184.518 561.399,193.921 561.399,210.461L561.399,283.531L594.479,283.531L594.479,203.55C594.479,174.435 578.845,156.989 551.203,156.989C532.058,156.989 519.37,165.372 512.232,181.119L511.553,181.119L511.553,158.802L479.606,158.802L479.606,283.531Z" style="fill:rgb(23,38,94);fill-rule:nonzero;"/>
                <path d="M729.064,204.796C727.478,177.041 706.067,156.649 672.534,156.649C635.489,156.649 611.698,181.572 611.698,221.11C611.698,261.213 635.489,285.683 672.76,285.683C705.5,285.683 727.251,267.217 729.177,238.216L698.363,238.216C696.211,251.924 687.034,259.514 673.1,259.514C655.994,259.514 645.231,245.466 645.231,221.11C645.231,197.206 655.994,182.705 672.987,182.705C687.374,182.705 696.437,191.882 698.25,204.796L729.064,204.796Z" style="fill:rgb(23,38,94);fill-rule:nonzero;"/>
                <path d="M801.341,181.346C816.635,181.346 827.284,191.995 827.85,208.308L774.039,208.308C775.172,192.335 786.274,181.346 801.341,181.346ZM828.303,245.466C825.131,255.096 815.275,260.987 802.814,260.987C785.367,260.987 773.699,248.865 773.699,230.852L773.699,228.813L859.797,228.813L859.797,218.617C859.797,180.666 836.913,156.649 801.001,156.649C764.409,156.649 741.072,182.026 741.072,221.676C741.072,261.326 764.296,285.683 802.247,285.683C832.608,285.683 855.152,269.596 858.777,245.466L828.303,245.466Z" style="fill:rgb(23,38,94);fill-rule:nonzero;"/>
                <path d="M877.583,283.531L910.663,283.531L910.663,213.746C910.663,196.3 920.519,185.877 937.285,185.877C942.157,185.877 946.688,186.67 949.52,187.803L949.52,158.575C947.141,157.782 943.743,157.329 939.891,157.329C925.164,157.329 914.401,165.712 910.21,181.119L909.53,181.119L909.53,158.802L877.583,158.802L877.583,283.531Z" style="fill:rgb(23,38,94);fill-rule:nonzero;"/>
                <path d="M1089.66,283.531L1089.66,148.266L1137.58,148.266L1137.58,120.058L1007.64,120.058L1007.64,148.266L1055.44,148.266L1055.44,283.531L1089.66,283.531Z" style="fill:rgb(23,38,94);fill-rule:nonzero;"/>
                <path d="M1144.49,283.531L1177.57,283.531L1177.57,213.746C1177.57,196.3 1187.42,185.877 1204.19,185.877C1209.06,185.877 1213.59,186.67 1216.42,187.803L1216.42,158.575C1214.05,157.782 1210.65,157.329 1206.8,157.329C1192.07,157.329 1181.31,165.712 1177.11,181.119L1176.43,181.119L1176.43,158.802L1144.49,158.802L1144.49,283.531Z" style="fill:rgb(23,38,94);fill-rule:nonzero;"/>
                <path d="M1231.04,283.531L1264.12,283.531L1264.12,158.802L1231.04,158.802L1231.04,283.531ZM1247.58,145.207C1257.43,145.207 1265.48,137.73 1265.48,127.874C1265.48,118.018 1257.43,110.655 1247.58,110.655C1237.84,110.655 1229.79,118.018 1229.79,127.874C1229.79,137.73 1237.84,145.207 1247.58,145.207Z" style="fill:rgb(23,38,94);fill-rule:nonzero;"/>
                <path d="M1334.81,260.873C1322.8,260.873 1314.98,255.096 1314.98,245.919C1314.98,236.743 1322.35,231.305 1336.17,230.399L1362.34,228.587L1362.34,237.763C1362.34,251.357 1350.1,260.873 1334.81,260.873ZM1324.05,285.003C1340.02,285.003 1355.43,277.3 1362.23,264.272L1362.9,264.272L1362.9,283.531L1394.85,283.531L1394.85,197.999C1394.85,173.076 1373.89,156.649 1341.83,156.649C1310.68,156.649 1289.15,173.076 1288.25,196.866L1318.5,196.866C1320.08,187.803 1328.46,181.459 1340.47,181.459C1354.07,181.459 1362.34,188.03 1362.34,200.038L1362.34,208.308L1331.18,210.234C1299.35,212.16 1282.02,224.961 1282.02,247.619C1282.02,269.936 1300.03,285.003 1324.05,285.003Z" style="fill:rgb(23,38,94);fill-rule:nonzero;"/>
                <rect x="1417.96" y="112.241" width="33.08" height="171.29" style="fill:rgb(23,38,94);fill-rule:nonzero;"/>
                <path d="M1472.11,195.507C1472.11,213.746 1484.24,225.868 1507.68,231.192L1530.68,236.403C1542.01,239.122 1546.32,242.521 1546.32,248.978C1546.32,257.135 1538.27,262.233 1525.13,262.233C1511.42,262.233 1502.93,256.342 1501.34,245.806L1469.05,245.806C1470.75,269.823 1491.37,285.683 1524.23,285.683C1556.85,285.683 1579.17,269.71 1579.17,245.466C1579.17,226.887 1569.2,217.258 1544.16,211.594L1520.71,206.496C1509.5,203.89 1504.06,199.698 1504.06,193.468C1504.06,185.424 1511.99,180.1 1523.88,180.1C1536.57,180.1 1544.84,186.331 1545.52,196.186L1576.11,196.186C1575.66,172.396 1555.15,156.649 1524.34,156.649C1492.73,156.649 1472.11,172.056 1472.11,195.507Z" style="fill:rgb(23,38,94);fill-rule:nonzero;"/>
            </g>
            <g transform="matrix(0.651155,0,0,0.651155,-90.3354,36.2918)">
                <path d="M181.208,236.97C182.228,267.671 207.264,286.363 246.575,286.363C287.131,286.363 312.847,266.311 312.847,234.591C312.847,209.668 298.573,195.62 265.833,188.596L246.008,184.405C227.202,180.1 219.272,174.435 219.272,164.353C219.272,152.231 230.601,144.188 247.481,144.188C264.587,144.188 276.709,152.571 277.842,166.392L309.902,166.392C309.336,136.824 285.432,117.225 247.368,117.225C210.889,117.225 184.833,137.164 184.833,167.298C184.833,191.202 199.674,206.496 229.808,212.953L251.106,217.598C270.818,222.016 278.635,227.907 278.635,238.556C278.635,250.564 266.173,259.287 247.934,259.287C229.808,259.287 215.76,250.451 214.174,236.97L181.208,236.97Z" style="fill:rgb(81,93,134);fill-rule:nonzero;"/>
                <path d="M347.287,329.072C378.441,329.072 393.734,317.857 404.383,286.023L447.546,158.802L412.653,158.802L385.578,256.682L384.898,256.682L357.936,158.802L321.684,158.802L365.413,284.324L364.28,289.082C361.674,299.051 354.537,303.356 342.189,303.356C340.829,303.356 335.845,303.243 334.712,303.016L334.712,328.619C335.958,328.846 346.04,329.072 347.287,329.072Z" style="fill:rgb(81,93,134);fill-rule:nonzero;"/>
                <path d="M460.12,283.531L493.2,283.531L493.2,212.387C493.2,195.847 502.716,184.518 518.577,184.518C534.21,184.518 541.914,193.921 541.914,210.461L541.914,283.531L574.993,283.531L574.993,203.55C574.993,174.435 559.36,156.989 531.718,156.989C512.572,156.989 499.884,165.372 492.747,181.119L492.067,181.119L492.067,158.802L460.12,158.802L460.12,283.531Z" style="fill:rgb(81,93,134);fill-rule:nonzero;"/>
                <path d="M709.578,204.796C707.992,177.041 686.581,156.649 653.048,156.649C616.003,156.649 592.213,181.572 592.213,221.11C592.213,261.213 616.003,285.683 653.275,285.683C686.015,285.683 707.766,267.217 709.692,238.216L678.878,238.216C676.725,251.924 667.549,259.514 653.615,259.514C636.508,259.514 625.746,245.466 625.746,221.11C625.746,197.206 636.508,182.705 653.501,182.705C667.889,182.705 676.952,191.882 678.764,204.796L709.578,204.796Z" style="fill:rgb(81,93,134);fill-rule:nonzero;"/>
                <path d="M812.67,283.531L812.67,219.184L879.169,219.184L879.169,192.108L812.67,192.108L812.67,148.266L885.513,148.266L885.513,120.058L778.457,120.058L778.457,283.531L812.67,283.531Z" style="fill:rgb(81,93,134);fill-rule:nonzero;"/>
                <path d="M957.903,285.683C995.741,285.683 1019.42,261.553 1019.42,221.11C1019.42,181.119 995.515,156.649 957.903,156.649C920.405,156.649 896.389,181.233 896.389,221.11C896.389,261.44 920.066,285.683 957.903,285.683ZM957.903,260.194C940.457,260.194 929.922,245.919 929.922,221.11C929.922,196.64 940.457,182.026 957.903,182.026C975.236,182.026 985.772,196.526 985.772,221.11C985.772,245.919 975.35,260.194 957.903,260.194Z" style="fill:rgb(81,93,134);fill-rule:nonzero;"/>
                <path d="M1037.09,283.531L1070.17,283.531L1070.17,213.746C1070.17,196.3 1080.03,185.877 1096.79,185.877C1101.66,185.877 1106.2,186.67 1109.03,187.803L1109.03,158.575C1106.65,157.782 1103.25,157.329 1099.4,157.329C1084.67,157.329 1073.91,165.712 1069.72,181.119L1069.04,181.119L1069.04,158.802L1037.09,158.802L1037.09,283.531Z" style="fill:rgb(81,93,134);fill-rule:nonzero;"/>
            </g>
        </g>
        <g transform="matrix(0.18867,0,0,0.148418,93.739,230.056)">
            <g transform="matrix(0.53727,0,0,0.590327,3284.58,294.965)">
                <path d="M9268,720C9268,322.621 8989.15,0 8645.68,0L7113.32,0C6769.85,0 6491,322.621 6491,720C6491,1117.38 6769.85,1440 7113.32,1440L8645.68,1440C8989.15,1440 9268,1117.38 9268,720Z" style="fill:rgb(221,68,68);"/>
            </g>
            <g transform="matrix(1.27743,0,0,1.62387,-223.465,267.931)">
                <path d="M5779.29,392C5827.94,392 5858.81,366.333 5858.81,326.495C5858.81,296.262 5834.4,273.429 5803.69,272.012L5803.69,270.753C5828.89,267.288 5848.26,246.975 5848.26,221.466C5848.26,186.352 5821.17,164.779 5776.45,164.779L5670.16,164.779L5670.16,392L5779.29,392ZM5727.95,205.72L5761.18,205.72C5780.55,205.72 5791.88,215.168 5791.88,231.072C5791.88,247.448 5779.44,257.368 5758.34,257.368L5727.95,257.368L5727.95,205.72ZM5727.95,351.059L5727.95,292.483L5762.6,292.483C5786.53,292.483 5800.07,302.875 5800.07,321.456C5800.07,340.667 5786.69,351.059 5762.91,351.059L5727.95,351.059Z" style="fill:white;fill-rule:nonzero;"/>
                <path d="M6038.79,345.391L5940.85,345.391L5940.85,299.096L6032.96,299.096L6032.96,256.581L5940.85,256.581L5940.85,211.389L6038.79,211.389L6038.79,164.779L5883.06,164.779L5883.06,392L6038.79,392L6038.79,345.391Z" style="fill:white;fill-rule:nonzero;"/>
                <path d="M6182.24,392L6182.24,211.389L6245.22,211.389L6245.22,164.779L6061.46,164.779L6061.46,211.389L6124.45,211.389L6124.45,392L6182.24,392Z" style="fill:white;fill-rule:nonzero;"/>
                <path d="M6388.83,392L6450.24,392L6373.87,164.779L6303.17,164.779L6226.8,392L6285.69,392L6300.18,342.084L6374.5,342.084L6388.83,392ZM6336.71,212.963L6337.97,212.963L6363.16,300.513L6311.36,300.513L6336.71,212.963Z" style="fill:white;fill-rule:nonzero;"/>
            </g>
        </g>
    </g>
</svg>
